<svg width="24" height="24" viewBox="0 0 24 24" fill="none" xmlns="http://www.w3.org/2000/svg"><mask id="mask0_4004_593" style="mask-type:alpha" maskUnits="userSpaceOnUse" x="0" y="0" width="24" height="24"><path fill-rule="evenodd" clip-rule="evenodd" d="M16.38 14H8.76L7.13 8h12.25l-3 6Zm4.7-7.05c-.36-.6-1-.95-1.7-.95H6.58l-.62-2.26A1 1 0 0 0 5 3H3a1 1 0 1 0 0 2h1.24l2.8 10.26A1 1 0 0 0 8 16h9a1 1 0 0 0 .9-.55l3.27-6.56c.31-.62.28-1.35-.09-1.94ZM7.5 18a1.5 1.5 0 1 0 0 3 1.5 1.5 0 0 0 0-3Zm8.5 1.5a1.5 1.5 0 1 1 3 0 1.5 1.5 0 0 1-3 0Z" fill="#071435"/></mask><g mask="url(#mask0_4004_593)"><rect width="24" height="24" fill="#1551E5"/></g></svg>