<svg width="16" height="16" viewBox="0 0 16 16" fill="none" xmlns="http://www.w3.org/2000/svg"><mask id="mask0_4004_639" style="mask-type:alpha" maskUnits="userSpaceOnUse" x="0" y="0" width="16" height="16"><path fill-rule="evenodd" clip-rule="evenodd" d="M13.16 2.84a.6.6 0 0 0-.84 0l-9.48 9.48a.6.6 0 0 0 0 .84c.23.23.6.23.84 0l9.48-9.48a.6.6 0 0 0 0-.84Zm-2.5 9.83a1 1 0 1 1 0-2 1 1 0 0 1 0 2Zm0-3.34a2.34 2.34 0 1 0 .01 4.68 2.34 2.34 0 0 0 0-4.68ZM5.34 4a1 1 0 1 1 0 2 1 1 0 0 1 0-2Zm0 3.33a2.34 2.34 0 1 0 0-4.67 2.34 2.34 0 0 0 0 4.67Z" fill="#071435"/></mask><g mask="url(#mask0_4004_639)"><rect width="16" height="16" fill="#1551E5"/></g></svg>