<svg width="32" height="32" viewBox="0 0 32 32" fill="none" xmlns="http://www.w3.org/2000/svg"><mask id="mask0_4004_573" style="mask-type:alpha" maskUnits="userSpaceOnUse" x="0" y="0" width="32" height="32"><path fill-rule="evenodd" clip-rule="evenodd" d="m7.35 21.33 1.58-1.57c.5-.5.78-1.18.78-1.89v-6.23a6.3 6.3 0 0 1 7.14-6.25c3.1.41 5.44 3.22 5.44 6.53v5.95c0 .71.28 1.38.78 1.89l1.58 1.57H7.35Zm11.32 3.12c0 1.2-1.23 2.22-2.67 2.22-1.45 0-2.67-1.02-2.67-2.22V24h5.34v.45Zm8.7-4.17-2.41-2.4v-5.96c0-4.65-3.34-8.59-7.76-9.17a8.96 8.96 0 0 0-10.16 8.89v6.23l-2.4 2.4A2.17 2.17 0 0 0 6.18 24h4.49v.45c0 2.7 2.39 4.88 5.33 4.88s5.33-2.18 5.33-4.88V24h4.49c.88 0 1.67-.53 2.01-1.35.34-.81.16-1.75-.47-2.37Z" fill="#071435"/></mask><g mask="url(#mask0_4004_573)"><rect width="32" height="32" fill="#1551E5"/></g></svg>