<svg width="24" height="24" viewBox="0 0 24 24" fill="none" xmlns="http://www.w3.org/2000/svg"><mask id="mask0_4004_534" style="mask-type:alpha" maskUnits="userSpaceOnUse" x="0" y="0" width="24" height="24"><path fill-rule="evenodd" clip-rule="evenodd" d="M3 7a1 1 0 1 1 2 0 1 1 0 0 1-2 0Zm0 5a1 1 0 1 1 2 0 1 1 0 0 1-2 0Zm1 4a1 1 0 1 0 0 2 1 1 0 0 0 0-2Zm3.94-5h12.12c.52 0 .94.42.94.94v.12c0 .52-.42.94-.94.94H7.94a.94.94 0 0 1-.94-.94v-.12c0-.52.42-.94.94-.94Zm12.12 5H7.94a.94.94 0 0 0-.94.94v.12c0 .52.42.94.94.94h12.12c.52 0 .94-.42.94-.94v-.12a.94.94 0 0 0-.94-.94ZM7.94 6h12.12c.52 0 .94.42.94.94v.12c0 .52-.42.94-.94.94H7.94A.94.94 0 0 1 7 7.06v-.12c0-.52.42-.94.94-.94Z" fill="#071435"/></mask><g mask="url(#mask0_4004_534)"><rect width="24" height="24" fill="white"/></g></svg>