<svg width="32" height="32" viewBox="0 0 32 32" fill="none" xmlns="http://www.w3.org/2000/svg"><mask id="mask0_4004_583" style="mask-type:alpha" maskUnits="userSpaceOnUse" x="0" y="0" width="32" height="32"><path fill-rule="evenodd" clip-rule="evenodd" d="M9.63 8c-1.16 0-2.24.45-3.04 1.25a4.32 4.32 0 0 0 0 6.1L16 24.78l9.41-9.43a4.32 4.32 0 0 0 0-6.1 4.41 4.41 0 0 0-6.08 0l-2.39 2.4c-.5.5-1.38.5-1.88 0l-2.4-2.4A4.27 4.27 0 0 0 9.64 8ZM16 28c-.35 0-.7-.14-.94-.4L4.7 17.24a7 7 0 0 1 4.93-11.9c1.86 0 3.61.73 4.92 2.04L16 8.82l1.45-1.45a6.92 6.92 0 0 1 4.92-2.04 7 7 0 0 1 4.93 11.9L16.94 27.61c-.25.25-.59.39-.94.39Z" fill="#071435"/></mask><g mask="url(#mask0_4004_583)"><rect width="32" height="32" fill="#77829E"/></g></svg>