<svg width="16" height="16" viewBox="0 0 16 16" fill="none" xmlns="http://www.w3.org/2000/svg"><path fill-rule="evenodd" clip-rule="evenodd" d="M4.67 7.33a.67.67 0 1 1 1.33 0 .67.67 0 0 1-1.33 0ZM8 6.67A.67.67 0 1 0 8 8a.67.67 0 0 0 0-1.33Zm2.67 0a.67.67 0 1 0 0 1.33.67.67 0 0 0 0-1.33Zm2.6 1.53a5.36 5.36 0 0 1-7.33 4.05 2.14 2.14 0 0 0-1.22-.14l-1.87.37.38-1.88c.07-.39.03-.8-.14-1.2a5.34 5.34 0 1 1 10.18-1.2Zm-.56-5.58a6.65 6.65 0 0 0-10.85 7.3c.06.15.08.3.06.42l-.57 2.86a.66.66 0 0 0 .78.79L5 13.42c.16-.04.32.01.43.05a6.68 6.68 0 0 0 9.16-5.07 6.65 6.65 0 0 0-1.87-5.78Z" fill="#071435"/></svg>