<svg width="24" height="24" viewBox="0 0 24 24" fill="none" xmlns="http://www.w3.org/2000/svg"><mask id="mask0_4004_554" style="mask-type:alpha" maskUnits="userSpaceOnUse" x="0" y="0" width="24" height="24"><path fill-rule="evenodd" clip-rule="evenodd" d="m13.41 12 4.3-4.3a1 1 0 1 0-1.42-1.4L12 10.58l-4.3-4.3A1 1 0 1 0 6.3 7.7l4.28 4.3-4.3 4.3a1 1 0 1 0 1.42 1.4l4.3-4.28 4.3 4.3a1 1 0 0 0 1.4 0 1 1 0 0 0 0-1.42L13.42 12Z" fill="#071435"/></mask><g mask="url(#mask0_4004_554)"><rect width="24" height="24" fill="#050D23"/></g></svg>