<svg width="144" height="30" viewBox="0 0 144 30" fill="none" xmlns="http://www.w3.org/2000/svg"><path d="M16.8 2.8A2.8 2.8 0 0 1 19.6 0h5.6A2.8 2.8 0 0 1 28 2.8v5.6a2.8 2.8 0 0 1-2.8 2.8h-5.6a2.8 2.8 0 0 1-2.8-2.8V2.8Z" fill="#1551E5"/><path d="M16.8 19.6a2.8 2.8 0 0 1 2.8-2.8h5.6a2.8 2.8 0 0 1 2.8 2.8v5.6a2.8 2.8 0 0 1-2.8 2.8h-5.6a2.8 2.8 0 0 1-2.8-2.8v-5.6Z" fill="#1551E5"/><path d="M0 19.6a2.8 2.8 0 0 1 2.8-2.8h5.6a2.8 2.8 0 0 1 2.8 2.8v5.6A2.8 2.8 0 0 1 8.4 28H2.8A2.8 2.8 0 0 1 0 25.2v-5.6Z" fill="#1551E5"/><path fill-rule="evenodd" clip-rule="evenodd" d="M16.8 8.4a2.8 2.8 0 1 1-5.6 0 2.8 2.8 0 0 1-2.8 2.8 2.8 2.8 0 0 1 0 5.6l2.8 2.8a2.8 2.8 0 1 1 5.6 0l2.8-2.8a2.8 2.8 0 0 1 0-5.6l-2.8-2.8Z" fill="#1551E5"/><path d="M8.4 0H2.8A2.8 2.8 0 0 0 0 2.8v5.6a2.8 2.8 0 0 0 2.8 2.8h5.6l2.8-2.8V2.8A2.8 2.8 0 0 0 8.4 0Z" fill="#1551E5"/><path d="M11.2 8.4a2.8 2.8 0 0 1-2.8 2.8l2.8-2.8Z" fill="#1551E5"/><path d="M52.96 10.88a.63.63 0 0 0 .41-.87 8.75 8.75 0 0 0-8.05-4.9 8.66 8.66 0 0 0-8.93 8.9c0 2.54.85 4.64 2.53 6.36a8.76 8.76 0 0 0 6.4 2.52c3.6 0 6.6-1.91 8.05-4.9a.63.63 0 0 0-.4-.87l-2.8-.82a.74.74 0 0 0-.84.35 4.6 4.6 0 0 1-4.01 2.2A4.74 4.74 0 0 1 40.58 14a4.74 4.74 0 0 1 8.75-2.65c.18.29.51.45.83.35l2.8-.82Z" fill="#171D45"/><path d="M58.75 20.37a8.76 8.76 0 0 0 6.4 2.52c2.56 0 4.67-.84 6.39-2.52A8.58 8.58 0 0 0 74.1 14c0-2.55-.84-4.65-2.56-6.33a8.66 8.66 0 0 0-6.4-2.56 8.66 8.66 0 0 0-8.92 8.9c0 2.54.84 4.64 2.53 6.36Zm3.02-9.83a4.52 4.52 0 0 1 3.37-1.39A4.74 4.74 0 0 1 69.88 14a4.74 4.74 0 1 1-9.48 0c0-1.39.46-2.52 1.37-3.46Z" fill="#171D45"/><path d="M80.27 22.4c.37 0 .67-.3.67-.66V12.5a3.49 3.49 0 0 1 3.54-3.55c1.98 0 3.5 1.52 3.5 3.55v9.23c0 .36.3.66.67.66h2.72c.37 0 .67-.3.67-.66V12.5a3.49 3.49 0 0 1 3.54-3.55c1.98 0 3.5 1.52 3.5 3.55v9.23c0 .36.3.66.67.66h2.69c.37 0 .67-.3.67-.66V11.35a5.9 5.9 0 0 0-1.92-4.46 6.69 6.69 0 0 0-4.8-1.78c-1.97 0-3.56.63-4.73 1.9a.91.91 0 0 1-1.32 0 6.02 6.02 0 0 0-4.66-1.9c-1.59 0-2.92.48-4 1.45-.26.24-.74.07-.74-.3 0-.36-.3-.66-.67-.66h-2.72c-.37 0-.67.3-.67.67v15.47c0 .36.3.66.67.66h2.72Z" fill="#171D45"/><path d="M109.28 29.68c.36 0 .66-.3.66-.67v-6.47c0-.59.7-.93 1.21-.64 1.18.65 2.47.99 3.89.99 2.34 0 4.28-.84 5.87-2.52a8.95 8.95 0 0 0 2.37-6.37c0-2.55-.78-4.65-2.37-6.33a7.67 7.67 0 0 0-5.87-2.56c-1.7 0-3.21.48-4.57 1.42-.22.15-.53 0-.53-.26 0-.37-.3-.67-.66-.67h-2.73c-.36 0-.66.3-.66.67V29c0 .37.3.67.66.67h2.73Zm8.45-19.14a4.85 4.85 0 0 1 1.33 3.46c0 1.39-.45 2.52-1.33 3.46a4.22 4.22 0 0 1-3.21 1.39 4.22 4.22 0 0 1-3.21-1.4A4.83 4.83 0 0 1 110 14c0-1.39.42-2.52 1.3-3.46a4.22 4.22 0 0 1 3.2-1.39c1.27 0 2.35.46 3.22 1.4Z" fill="#171D45"/><path d="M128.6 20.37a8.76 8.76 0 0 0 6.39 2.52 8.8 8.8 0 0 0 6.4-2.52 8.58 8.58 0 0 0 2.56-6.37c0-2.55-.85-4.65-2.57-6.33a8.65 8.65 0 0 0-6.4-2.56 8.65 8.65 0 0 0-8.92 8.9c0 2.54.85 4.64 2.53 6.36Zm3.01-9.83A4.52 4.52 0 0 1 135 9.15a4.74 4.74 0 0 1 4.74 4.85 4.74 4.74 0 1 1-9.48 0c0-1.39.45-2.52 1.36-3.46Z" fill="#171D45"/></svg>