<svg xmlns="http://www.w3.org/2000/svg"><style>:root svg:not(:target){display:none}</style><svg viewBox="0 0 32 32" fill="none" id="icon-arrow-big"><mask id="icon-arrow-big_0" style="mask-type:alpha" maskUnits="userSpaceOnUse" x="0" y="0" width="32" height="32"><path fill-rule="evenodd" clip-rule="evenodd" d="M13.33 25.33c-.3 0-.6-.1-.85-.3a1.33 1.33 0 0 1-.17-1.88l5.97-7.16-5.76-7.15a1.33 1.33 0 0 1 2.08-1.68l6.44 8c.4.5.4 1.2-.02 1.7l-6.66 8c-.27.3-.64.47-1.03.47Z" fill="#071435"></path></mask><g mask="url(#icon-arrow-big_0)"><rect width="32" height="32" fill="#1551E5"></rect></g></svg><svg viewBox="0 0 24 24" fill="none" id="icon-arrow"><mask id="icon-arrow_0" style="mask-type:alpha" maskUnits="userSpaceOnUse" x="0" y="0" width="24" height="24"><path fill-rule="evenodd" clip-rule="evenodd" d="M12 15.5a1 1 0 0 1-.7-.3l-4-4a1 1 0 1 1 1.4-1.4l3.31 3.3 3.3-3.18a1 1 0 0 1 1.38 1.44l-4 3.86a1 1 0 0 1-.69.28Z" fill="#071435"></path></mask><g mask="url(#icon-arrow_0)"><rect width="24" height="24" fill="#1551E5"></rect></g></svg><svg viewBox="0 0 24 24" fill="none" id="icon-basket"><mask id="icon-basket_0" style="mask-type:alpha" maskUnits="userSpaceOnUse" x="0" y="0" width="24" height="24"><path fill-rule="evenodd" clip-rule="evenodd" d="M16.38 14H8.76L7.13 8h12.25l-3 6Zm4.7-7.05c-.36-.6-1-.95-1.7-.95H6.58l-.62-2.26A1 1 0 0 0 5 3H3a1 1 0 1 0 0 2h1.24l2.8 10.26A1 1 0 0 0 8 16h9a1 1 0 0 0 .9-.55l3.27-6.56c.31-.62.28-1.35-.09-1.94ZM7.5 18a1.5 1.5 0 1 0 0 3 1.5 1.5 0 0 0 0-3Zm8.5 1.5a1.5 1.5 0 1 1 3 0 1.5 1.5 0 0 1-3 0Z" fill="#071435"></path></mask><g mask="url(#icon-basket_0)"><rect width="24" height="24" fill="#1551E5"></rect></g></svg><svg viewBox="0 0 24 24" fill="none" id="icon-burger"><mask id="icon-burger_0" style="mask-type:alpha" maskUnits="userSpaceOnUse" x="0" y="0" width="24" height="24"><path fill-rule="evenodd" clip-rule="evenodd" d="M3 7a1 1 0 1 1 2 0 1 1 0 0 1-2 0Zm0 5a1 1 0 1 1 2 0 1 1 0 0 1-2 0Zm1 4a1 1 0 1 0 0 2 1 1 0 0 0 0-2Zm3.94-5h12.12c.52 0 .94.42.94.94v.12c0 .52-.42.94-.94.94H7.94a.94.94 0 0 1-.94-.94v-.12c0-.52.42-.94.94-.94Zm12.12 5H7.94a.94.94 0 0 0-.94.94v.12c0 .52.42.94.94.94h12.12c.52 0 .94-.42.94-.94v-.12a.94.94 0 0 0-.94-.94ZM7.94 6h12.12c.52 0 .94.42.94.94v.12c0 .52-.42.94-.94.94H7.94A.94.94 0 0 1 7 7.06v-.12c0-.52.42-.94.94-.94Z" fill="#071435"></path></mask><g mask="url(#icon-burger_0)"><rect width="24" height="24" fill="white"></rect></g></svg><svg viewBox="0 0 16 16" fill="none" id="icon-chat"><path fill-rule="evenodd" clip-rule="evenodd" d="M4.67 7.33a.67.67 0 1 1 1.33 0 .67.67 0 0 1-1.33 0ZM8 6.67A.67.67 0 1 0 8 8a.67.67 0 0 0 0-1.33Zm2.67 0a.67.67 0 1 0 0 1.33.67.67 0 0 0 0-1.33Zm2.6 1.53a5.36 5.36 0 0 1-7.33 4.05 2.14 2.14 0 0 0-1.22-.14l-1.87.37.38-1.88c.07-.39.03-.8-.14-1.2a5.34 5.34 0 1 1 10.18-1.2Zm-.56-5.58a6.65 6.65 0 0 0-10.85 7.3c.06.15.08.3.06.42l-.57 2.86a.66.66 0 0 0 .78.79L5 13.42c.16-.04.32.01.43.05a6.68 6.68 0 0 0 9.16-5.07 6.65 6.65 0 0 0-1.87-5.78Z" fill="#071435"></path></svg><svg viewBox="0 0 24 24" fill="none" id="icon-close"><mask id="icon-close_0" style="mask-type:alpha" maskUnits="userSpaceOnUse" x="0" y="0" width="24" height="24"><path fill-rule="evenodd" clip-rule="evenodd" d="m13.41 12 4.3-4.3a1 1 0 1 0-1.42-1.4L12 10.58l-4.3-4.3A1 1 0 1 0 6.3 7.7l4.28 4.3-4.3 4.3a1 1 0 1 0 1.42 1.4l4.3-4.28 4.3 4.3a1 1 0 0 0 1.4 0 1 1 0 0 0 0-1.42L13.42 12Z" fill="#071435"></path></mask><g mask="url(#icon-close_0)"><rect width="24" height="24" fill="#050D23"></rect></g></svg><svg viewBox="0 0 16 16" fill="none" id="icon-doc"><mask id="icon-doc_0" style="mask-type:alpha" maskUnits="userSpaceOnUse" x="0" y="0" width="16" height="17"><path fill-rule="evenodd" clip-rule="evenodd" d="M11.6295 13.3338H4.3702C4.1662 13.3338 4.0002 13.1844 4.0002 13.0004V3.00044C4.0002 2.81644 4.1662 2.6671 4.3702 2.6671H7.33354V5.43377C7.33354 6.48177 8.14487 7.33377 9.14287 7.33377H12.0002V13.0004C12.0002 13.1844 11.8335 13.3338 11.6295 13.3338V13.3338ZM11.7662 6.00044H9.14287C8.8802 6.00044 8.66687 5.74644 8.66687 5.43377V2.6671H8.74154L11.7662 6.00044ZM13.1602 5.55244L9.53087 1.55244C9.40487 1.4131 9.22554 1.33377 9.03687 1.33377H4.3702C3.43087 1.33377 2.66687 2.08177 2.66687 3.00044V13.0004C2.66687 13.9191 3.43087 14.6671 4.3702 14.6671H11.6295C12.5689 14.6671 13.3335 13.9191 13.3335 13.0004V6.00044C13.3335 5.83444 13.2715 5.6751 13.1602 5.55244V5.55244Z" fill="#071435"></path></mask><g mask="url(#icon-doc_0)"><rect width="16" height="16" transform="translate(0 0.000427246)" fill="#77829E"></rect></g></svg><svg viewBox="0 0 16 16" fill="none" id="icon-info"><mask id="icon-info_0" style="mask-type:alpha" maskUnits="userSpaceOnUse" x="0" y="0" width="16" height="17"><path fill-rule="evenodd" clip-rule="evenodd" d="M7.33333 5.33377C7.33333 4.96577 7.63199 4.6671 7.99999 4.6671C8.368 4.6671 8.66666 4.96577 8.66666 5.33377C8.66666 5.70177 8.368 6.00044 7.99999 6.00044C7.63199 6.00044 7.33333 5.70177 7.33333 5.33377ZM7.33333 7.33377C7.33333 6.96577 7.63199 6.6671 7.99999 6.6671C8.368 6.6671 8.66666 6.96577 8.66666 7.33377V10.6671C8.66666 11.0351 8.368 11.3338 7.99999 11.3338C7.63199 11.3338 7.33333 11.0351 7.33333 10.6671V7.33377ZM7.99999 13.3338C5.05933 13.3338 2.66666 10.9411 2.66666 8.00044C2.66666 5.05977 5.05933 2.6671 7.99999 2.6671C10.9407 2.6671 13.3333 5.05977 13.3333 8.00044C13.3333 10.9411 10.9407 13.3338 7.99999 13.3338M8 1.33377C4.318 1.33377 1.33333 4.31844 1.33333 8.00044C1.33333 11.6824 4.318 14.6671 8 14.6671C11.6813 14.6671 14.6667 11.6824 14.6667 8.00044C14.6667 4.31844 11.6813 1.33377 8 1.33377" fill="#071435"></path></mask><g mask="url(#icon-info_0)"><rect width="16" height="16" transform="translate(0 0.000427246)" fill="#77829E"></rect></g></svg><svg viewBox="0 0 32 32" fill="none" id="icon-likes"><mask id="icon-likes_0" style="mask-type:alpha" maskUnits="userSpaceOnUse" x="0" y="0" width="32" height="32"><path fill-rule="evenodd" clip-rule="evenodd" d="M9.63 8c-1.16 0-2.24.45-3.04 1.25a4.32 4.32 0 0 0 0 6.1L16 24.78l9.41-9.43a4.32 4.32 0 0 0 0-6.1 4.41 4.41 0 0 0-6.08 0l-2.39 2.4c-.5.5-1.38.5-1.88 0l-2.4-2.4A4.27 4.27 0 0 0 9.64 8ZM16 28c-.35 0-.7-.14-.94-.4L4.7 17.24a7 7 0 0 1 4.93-11.9c1.86 0 3.61.73 4.92 2.04L16 8.82l1.45-1.45a6.92 6.92 0 0 1 4.92-2.04 7 7 0 0 1 4.93 11.9L16.94 27.61c-.25.25-.59.39-.94.39Z" fill="#071435"></path></mask><g mask="url(#icon-likes_0)"><rect width="32" height="32" fill="#77829E"></rect></g></svg><svg viewBox="0 0 24 24" fill="none" id="icon-minus"><mask id="icon-minus_0" style="mask-type:alpha" maskUnits="userSpaceOnUse" x="0" y="0" width="24" height="24"><path fill-rule="evenodd" clip-rule="evenodd" d="M19 13H5a1 1 0 1 1 0-2h14a1 1 0 1 1 0 2Z" fill="#071435"></path></mask><g mask="url(#icon-minus_0)"><rect width="24" height="24" fill="#071435"></rect></g></svg><svg viewBox="0 0 32 32" fill="none" id="icon-notification"><mask id="icon-notification_0" style="mask-type:alpha" maskUnits="userSpaceOnUse" x="0" y="0" width="32" height="32"><path fill-rule="evenodd" clip-rule="evenodd" d="m7.35 21.33 1.58-1.57c.5-.5.78-1.18.78-1.89v-6.23a6.3 6.3 0 0 1 7.14-6.25c3.1.41 5.44 3.22 5.44 6.53v5.95c0 .71.28 1.38.78 1.89l1.58 1.57H7.35Zm11.32 3.12c0 1.2-1.23 2.22-2.67 2.22-1.45 0-2.67-1.02-2.67-2.22V24h5.34v.45Zm8.7-4.17-2.41-2.4v-5.96c0-4.65-3.34-8.59-7.76-9.17a8.96 8.96 0 0 0-10.16 8.89v6.23l-2.4 2.4A2.17 2.17 0 0 0 6.18 24h4.49v.45c0 2.7 2.39 4.88 5.33 4.88s5.33-2.18 5.33-4.88V24h4.49c.88 0 1.67-.53 2.01-1.35.34-.81.16-1.75-.47-2.37Z" fill="#071435"></path></mask><g mask="url(#icon-notification_0)"><rect width="32" height="32" fill="#1551E5"></rect></g></svg><svg viewBox="0 0 16 16" fill="none" id="icon-percent"><mask id="icon-percent_0" style="mask-type:alpha" maskUnits="userSpaceOnUse" x="0" y="0" width="16" height="16"><path fill-rule="evenodd" clip-rule="evenodd" d="M13.16 2.84a.6.6 0 0 0-.84 0l-9.48 9.48a.6.6 0 0 0 0 .84c.23.23.6.23.84 0l9.48-9.48a.6.6 0 0 0 0-.84Zm-2.5 9.83a1 1 0 1 1 0-2 1 1 0 0 1 0 2Zm0-3.34a2.34 2.34 0 1 0 .01 4.68 2.34 2.34 0 0 0 0-4.68ZM5.34 4a1 1 0 1 1 0 2 1 1 0 0 1 0-2Zm0 3.33a2.34 2.34 0 1 0 0-4.67 2.34 2.34 0 0 0 0 4.67Z" fill="#071435"></path></mask><g mask="url(#icon-percent_0)"><rect width="16" height="16" fill="#1551E5"></rect></g></svg><svg viewBox="0 0 24 24" fill="none" id="icon-plus"><mask id="icon-plus_0" style="mask-type:alpha" maskUnits="userSpaceOnUse" x="0" y="0" width="24" height="24"><path fill-rule="evenodd" clip-rule="evenodd" d="M19 11h-6V5a1 1 0 1 0-2 0v6H5a1 1 0 1 0 0 2h6v6a1 1 0 1 0 2 0v-6h6a1 1 0 1 0 0-2Z" fill="#071435"></path></mask><g mask="url(#icon-plus_0)"><rect width="24" height="24" fill="#071435"></rect></g></svg><svg viewBox="0 0 24 24" fill="none" id="icon-search"><mask id="icon-search_0" style="mask-type:alpha" maskUnits="userSpaceOnUse" x="0" y="0" width="24" height="24"><path fill-rule="evenodd" clip-rule="evenodd" d="M5 11a6 6 0 1 1 12.01.01A6 6 0 0 1 5 11Zm15.7 8.3-3.39-3.4A8 8 0 1 0 3 11a8 8 0 0 0 12.9 6.31l3.4 3.4a1 1 0 0 0 1.4 0 1 1 0 0 0 0-1.42Z" fill="#071435"></path></mask><g mask="url(#icon-search_0)"><rect width="24" height="24" fill="#050D23"></rect></g></svg><svg viewBox="0 0 16 16" fill="none" id="icon-video"><mask id="icon-video_0" style="mask-type:alpha" maskUnits="userSpaceOnUse" x="0" y="0" width="16" height="17"><path fill-rule="evenodd" clip-rule="evenodd" d="M13.3333 9.7335L11.4607 8.00016L13.3333 6.2675V9.7335ZM10 10.6668C10 11.0348 9.70134 11.3335 9.33334 11.3335H3.33334C2.96534 11.3335 2.66668 11.0348 2.66668 10.6668V5.3335C2.66668 4.96616 2.96534 4.66683 3.33334 4.66683H9.33334C9.70134 4.66683 10 4.96616 10 5.3335V10.6668ZM14.008 4.76416C13.5907 4.58216 13.1067 4.6615 12.774 4.96816L11.3333 6.3015V5.3335C11.3333 4.23083 10.436 3.3335 9.33334 3.3335H3.33334C2.23068 3.3335 1.33334 4.23083 1.33334 5.3335V10.6668C1.33334 11.7702 2.23068 12.6668 3.33334 12.6668H9.33334C10.436 12.6668 11.3333 11.7702 11.3333 10.6668V9.6995L12.774 11.0322C12.9873 11.2302 13.264 11.3335 13.546 11.3335C13.702 11.3335 13.8587 11.3022 14.008 11.2368C14.414 11.0595 14.6667 10.6802 14.6667 10.2475V5.7535C14.6667 5.32083 14.414 4.9415 14.008 4.76416Z" fill="#071435"></path></mask><g mask="url(#icon-video_0)"><rect width="16" height="16" transform="translate(0 0.000427246)" fill="#77829E"></rect></g></svg><svg viewBox="0 0 16 16" fill="none" id="icon-youtube"><mask id="icon-youtube_0" style="mask-type:alpha" maskUnits="userSpaceOnUse" x="0" y="0" width="16" height="17"><path d="M14.3864 4.72445C14.2348 4.17965 13.7803 3.74954 13.2045 3.599C12.1667 3.33377 8 3.33377 8 3.33377C8 3.33377 3.83333 3.33377 2.78788 3.599C2.21212 3.74237 1.76515 4.17248 1.60606 4.72445C1.33333 5.7137 1.33333 7.77822 1.33333 7.77822C1.33333 7.77822 1.33333 9.84273 1.61364 10.832C1.76515 11.3768 2.2197 11.8069 2.79545 11.9574C3.83333 12.2227 8 12.2227 8 12.2227C8 12.2227 12.1667 12.2227 13.2121 11.9574C13.7879 11.8141 14.2348 11.384 14.3939 10.832C14.6667 9.84273 14.6667 7.77822 14.6667 7.77822C14.6667 7.77822 14.6667 5.7137 14.3864 4.72445ZM6.63636 9.65635V5.90008L10.1212 7.77822L6.63636 9.65635Z" fill="#071435"></path></mask><g mask="url(#icon-youtube_0)"><rect width="16" height="16" transform="translate(0 0.000427246)" fill="#1551E5"></rect></g></svg></svg>