<svg width="124" height="26" viewBox="0 0 124 26" fill="none" xmlns="http://www.w3.org/2000/svg"><path d="M14.68 2.4a2.4 2.4 0 0 1 2.4-2.4h4.8a2.4 2.4 0 0 1 2.4 2.4v4.8a2.4 2.4 0 0 1-2.4 2.4h-4.8a2.4 2.4 0 0 1-2.4-2.4V2.4Z" fill="#828EAD"/><path d="M14.68 16.8a2.4 2.4 0 0 1 2.4-2.4h4.8a2.4 2.4 0 0 1 2.4 2.4v4.8a2.4 2.4 0 0 1-2.4 2.4h-4.8a2.4 2.4 0 0 1-2.4-2.4v-4.8Z" fill="#828EAD"/><path d="M.29 16.8a2.4 2.4 0 0 1 2.4-2.4h4.8a2.4 2.4 0 0 1 2.4 2.4v4.8a2.4 2.4 0 0 1-2.4 2.4h-4.8a2.4 2.4 0 0 1-2.4-2.4v-4.8Z" fill="#828EAD"/><path fill-rule="evenodd" clip-rule="evenodd" d="M14.68 7.2a2.4 2.4 0 1 1-4.8 0 2.4 2.4 0 0 1-2.4 2.4 2.4 2.4 0 0 1 0 4.8l2.4 2.4a2.4 2.4 0 1 1 4.8 0l2.4-2.4a2.4 2.4 0 0 1 0-4.8l-2.4-2.4Z" fill="#828EAD"/><path d="M7.48 0h-4.8a2.4 2.4 0 0 0-2.4 2.4v4.8a2.4 2.4 0 0 0 2.4 2.4h4.8l2.4-2.4V2.4A2.4 2.4 0 0 0 7.48 0Z" fill="#828EAD"/><path d="M9.88 7.2a2.4 2.4 0 0 1-2.4 2.4l2.4-2.4Z" fill="#828EAD"/><path d="M45.68 9.32c.32-.1.5-.44.35-.74a7.5 7.5 0 0 0-6.9-4.2A7.42 7.42 0 0 0 31.48 12c0 2.19.72 3.99 2.17 5.46a7.5 7.5 0 0 0 5.48 2.16 7.5 7.5 0 0 0 6.9-4.2.54.54 0 0 0-.35-.74l-2.4-.7a.64.64 0 0 0-.71.3 3.94 3.94 0 0 1-3.44 1.88A4.06 4.06 0 0 1 35.07 12a4.06 4.06 0 0 1 7.5-2.27c.15.24.44.38.71.3l2.4-.7Z" fill="#828EAD"/><path d="M50.64 17.46a7.5 7.5 0 0 0 5.48 2.16c2.2 0 4-.72 5.48-2.16A7.35 7.35 0 0 0 63.8 12c0-2.19-.72-3.99-2.2-5.43a7.42 7.42 0 0 0-5.48-2.19A7.42 7.42 0 0 0 48.47 12c0 2.19.73 3.99 2.17 5.46Zm2.59-8.42a3.9 3.9 0 0 1 2.9-1.2A4.06 4.06 0 0 1 60.18 12a4.06 4.06 0 1 1-8.13 0c0-1.19.39-2.16 1.17-2.96Z" fill="#828EAD"/><path d="M69.09 19.2c.32 0 .57-.25.57-.57v-7.9a2.99 2.99 0 0 1 3.03-3.05c1.7 0 3 1.3 3 3.05v7.9c0 .32.27.57.58.57h2.33c.32 0 .58-.25.58-.57v-7.9a2.99 2.99 0 0 1 3.03-3.05c1.7 0 3 1.3 3 3.05v7.9c0 .32.26.57.58.57h2.3c.32 0 .57-.25.57-.57v-8.9c0-1.52-.55-2.8-1.64-3.82a5.73 5.73 0 0 0-4.12-1.53c-1.68 0-3.05.54-4.05 1.63a.78.78 0 0 1-1.13 0 5.16 5.16 0 0 0-4-1.63c-1.35 0-2.5.41-3.42 1.24-.22.21-.64.06-.64-.25a.57.57 0 0 0-.57-.57h-2.33a.57.57 0 0 0-.58.57v13.26c0 .32.26.57.58.57h2.33Z" fill="#828EAD"/><path d="M93.95 25.44c.32 0 .57-.26.57-.58v-5.54c0-.5.6-.8 1.04-.55 1.01.56 2.12.85 3.33.85 2 0 3.67-.72 5.04-2.16a7.68 7.68 0 0 0 2.03-5.46c0-2.19-.67-3.99-2.03-5.43a6.58 6.58 0 0 0-5.04-2.19c-1.45 0-2.75.41-3.92 1.22-.18.13-.45 0-.45-.23a.57.57 0 0 0-.57-.57h-2.33a.57.57 0 0 0-.58.57v19.5c0 .31.26.57.58.57h2.33Zm7.25-16.4c.75.8 1.14 1.77 1.14 2.96 0 1.2-.39 2.16-1.14 2.97a3.62 3.62 0 0 1-2.75 1.19c-1.09 0-2-.4-2.76-1.2A4.14 4.14 0 0 1 94.58 12c0-1.19.36-2.16 1.11-2.96.75-.8 1.67-1.2 2.76-1.2 1.08 0 2 .4 2.75 1.2Z" fill="#828EAD"/><path d="M110.5 17.46a7.5 7.5 0 0 0 5.49 2.16c2.2 0 4-.72 5.48-2.16a7.35 7.35 0 0 0 2.2-5.46c0-2.19-.73-3.99-2.2-5.43a7.42 7.42 0 0 0-5.48-2.19 7.42 7.42 0 0 0-7.65 7.62c0 2.19.72 3.99 2.17 5.46Zm2.6-8.42c.78-.8 1.75-1.2 2.89-1.2a4.06 4.06 0 0 1 4.06 4.16 4.06 4.06 0 1 1-8.12 0c0-1.19.39-2.16 1.17-2.96Z" fill="#828EAD"/></svg>